<?xml version="1.0" encoding="UTF-8"?>
<svg id="Calque_1" data-name="Calque 1" xmlns="http://www.w3.org/2000/svg" viewBox="0 0 1920 1920">
  <defs>
    <style>
      .cls-1 {
        fill: #e74988;
      }
    </style>
  </defs>
  <rect class="cls-1" x="0" y="0" width="1920" height="1920" rx="960" ry="960"/>
  <g>
    <path d="M1609.54,606.44c7.54,2.78,26.39,12.9,34.36,18.13,59.4,39.05,46.29,90.77,47.23,152.82.22,14.75-.73,32.03-.16,45.71.27,6.6,4.38,9.53,4.55,14.41.15,4.33-3.64,13.23-5.95,17.15-9.34,15.89-60.96,46.14-78.41,60.91-24.39,20.65-49.32,37.31-77.97,53.04-43.06,23.64-89.04,44.14-132.62,67.02-14.69,4.1-32.2,7.88-47.36,8.79-15.46.93-26.82-5.04-41.55,6.29l-10.79-27.13c-25.32.01-45.35.88-67.87,12.95-51.26,27.49-119.28,73.34-158.51,115.98-70.84,77.02-137.44,134.16-215.21,202.75-54.99,48.5-125.67,85.47-200.76,92.46-40.96,3.81-83.39,11.65-122.71,14.55-13.03.96-29.2-1.79-41.47.13-35.29,5.51-85.18.76-119.08-14.23-23.96-10.59-47.56-21.04-71.56-32.42-14.42-6.84-34.28-12.89-46.6-24.1-11.17-10.16-13.1-29.85-18.3-44.07-9.96-27.22-16.05-39.78-13.87-71.31,1.53-22.19,21.34-81.38,40.95-92.54,2.71-1.54,16.42-7.78,19.72-8.96,18.42-6.62,63.66-7.28,66.22-29.44,1.33-11.54-2.84-28.35-1.75-37.05,1.79-14.38-.77-6.34-1.69-12.81-.41-2.92,14.91-50.78,17.47-54.61,3.36-5.03,13.61-12.81,19.19-15.14-3.76-7.26-14-5.27-20.25-7.78-16.45-6.62-34.37-24.74-35.93-43.12-2.43-28.68,25.04-44.58,49.78-49.02,1.3-7.94-4.88-14.11-5.89-21.84-5.95-45.65,52.29-67.46,89.25-67.39-4.2-10.57,2.14-8.14,4.27-11.84,2.67-4.62,5.6-19.03,11.67-21.07l44.28-.44c3.93-29.05,28.89-53.16,51.11-70.53,87.6-68.47,240.23-78.51,346.71-61.85,47.87,7.49,86.81,9.77,135.74,11.92,25.88,1.14,64.39,7.64,88.88-.59,5.89-1.98,11.86-8.71,16.37-10.67,47.75-20.7,93.53-43.64,140.66-65.22,93.75-42.92,213.24-34.74,307.84.19ZM1547.25,856.84c8.23-4.55,28-20.43,38.42-27.05,48.94-31.08,101.67-79.43,95.03-143.73-1.4-13.52-15.04-28.86-24.79-37.7-70.84-64.26-258.34-67.87-343.84-33.83-6.66,2.65-8.71,7.4-13.2,9.68-35.35,17.93-72.61,30.14-108.68,45.21-9.62,4.02-31.9,13.41-39.72,18.51-.85.55-2.73,2.32-2.1,3.07h10.39c4.63,14.9,3.26,30.58-4.42,44.45-6.75,12.2-31.08,34.58-41.4,45.94-24.15,26.59-72.21,74.82-84.05,107.24-1.01,2.77-1.63,5.24-1.15,8.19,20.41.46,41-3.22,61.34-3.73,15.8-.4,37.99,3.52,53.65.95,27.39-4.49,47.01-3.83,73.34-6.65,38.54-4.13,95.75-21.5,132.41-32.73,20.09-6.15,46.05-21.13,67.65-12.38,5.85,2.37,18.86,20.08,19.13,26.67.4,9.74-14.45,33.18-24.83,34.14-.19,3.3-.98,4.74,3.08,4.13,11.13-1.66,31.09-12.69,43.09-17.25,4.61-1.75,9.8-.88,14.18-2.46,19.51-7.01,44.8-23.65,63.94-29.65,4.15-1.3,9.67.55,12.53-1.03ZM1156.67,695.19c-11.53,3.83-23.8,2.98-35.93,4.59-15.56,2.07-27.45-1.69-44.16-2.5-51.81-2.51-93.34-3.99-145.35-10.63-129.91-16.61-294.93-25.23-384.78,89.83-7.56,9.69-10.94,21.43-19.94,29.92l27.9,9.15c15.1-18.19,36.67-.19,49.42-25.37,10.56-20.85,18.13-40.41,34.39-57.66,3.32-3.52,28.75-19.91,34.48-23.18,80.45-45.79,172.86-22.97,259.97-15.32,49.01,4.3,98.9,9.38,148,11.64,23.4,1.08,52.82,3.49,73.9-6.32l2.08,8.31v-12.45ZM907.09,755.49c-12.07-2.57-23.42-2.37-35.78-4.79-37.68-7.4-70.03-21.04-110.88-24.3-36.64-2.92-93.92,9.76-122.77,33.14-2.02,1.64-29.96,39.36-31.06,41.71-1.31,2.78-1.33,5.3-1.1,8.26,11.52-1.9,10.38,5.67,14.53,10.94,1.63,2.07,4.43,2.63,6.01,4.85,4.55,6.44,3.39,17.4,16.91,15.43-10.97,7.49-8.72,20.49-16.64,31.14,10.07-.81,10.1,9.39,20.79,6.25-4.15-7.99-7.45-18.31,4.13-20.77l6.41,13.4c-7.95,3.17-9.67,10.44-.15,11.52.87-11.03,5.92-24.95-1.98-34.39-2.1-2.51-6.54-1.84-6.32-5.08,6.74-.71,13.38.6,17.67,6.21l1.04,27.03c20.58-.07,41.14-15.92,51.25-32.97,4-6.74,4.38-13.62,7.45-19.57,15.83-30.64,72.02-33.45,102.37-41.12,19.04-4.81,54.81-13.9,71.88-21.71,1.72-.79,7.39-3.62,6.22-5.19ZM1058.91,753.4c-1.23-1.05-27.81,4.02-32.15,4.22-29.91,1.41-71.69-4.3-99.41.43-9.34,1.59-24.99,11.9-34.74,15.17-14.29,4.8-36.83,11.41-51.66,14.89-29.81,7-83.03,10.11-101.2,38.13-3.85,5.94-4.41,13.14-7.72,19.31-1.05,1.95-17.66,22.63-18.82,23.6-.49.41-3.09-.61-4.77.51-8.83,5.9-17.61,11.94-28.06,14.72-1.56,5.55,3.53,3.72,5.97,7.42,3.15,4.79,11.45,19.65,12.31,24.74.35,2.06-2.01,16.1-2.8,17.55-3.65,6.71-12.94,8.49-9.23,20.92l34.86-16.07c54.57-18.59,112.78-29.86,169.85-35.88,17.72-1.87,35.43-3.83,53.21-5.2,11.72-13.58,21.57-28.17,32.05-42.81,20.5-28.66,51.1-77.73,79.62-97.05,1.87-1.27,3.85.33,2.7-4.63ZM1678.72,759.64c-5.64-1.23-3.55,1.69-5.14,4.12-10.04,15.35-18.32,25.92-30.17,38.5-4.12,4.38-14.1,9.11-11.49,13.48,13.43-5.95,18.47-19.02,30.15-27.01-3.59,12.16-2.18,22.54-12.44,32.26l6.2,1.01-4.12,14.55,7.28-8.3c6.82-1-3.02,10.1-1.05,12.45l8.29-6.22c-5.27,9.62-.92,17.91-6.22,27,2.35,2.47,11.48-9.28,12.06-11.84,2.12-9.45-.21-20.26.44-28.61,1.61-20.57,7.54-40.62,6.21-61.38ZM539.68,823.33c-1.52-1.2-2.08-3.92-4.08-5.17-11.29-7.05-27.68-12.05-40.92-8.21-5.94,1.72-6.28,7.98-8.97,11.83-3.28,4.69-10.02,3.88-7.16,15.48,11.99,3.01,16.53,9.46,26.06,15.92,6.76-10.79,22.9-15.72,34.92-19.39,2.57-.78,7.08.17,7.75-.31,7.51-5.36-5.6-8.56-7.6-10.15ZM605.16,813.9c-1.97-1.12-5.1,1.35-6.97,1.04-2.72-.44-3.97-5.35-10.37-5.67-13.24-.66-11.99,7.32-16,13.39-4.45,6.73-10.88,13.4-13.17,22.13-3.79,14.42,7.26,50.57,23.94,42.66,7.04-3.34,9.56-10.59,13.1-14.98,1.58-1.96,6.11-1.91,7.38-6.15,1.56-5.25,1.17-16.78,2.68-24.35,1.02-5.1,5.33-11.03,5.51-15.15.09-2.03-5.47-12.56-6.09-12.91ZM545.19,842.78c-14.36.62-39.21,19.95-39.59,34.28-.4,14.93,14.7,8.18,21.58,15.44,2.67,2.82,1.09,8.45,4.56,12.6,4.34,5.21,10.99,1.9,13.46,6.26-19.82-3.56-15.9,4.01-23.52,11.86-13.59,13.99-41.36,22.44-55.51,4.81,10.04,3.41,14.91,8.49,26.6,6.99,11.2-1.44,32.7-14.48,29.57-27.8-25.25,2.33-12.08-24.69-40.68-20.88-9,1.2-33.82,14.51-40.95,20.84-1.84,1.63-7.36,8.45-8.74,10.58-7.16,11.09,6.35,12.7,5.37,24.55l5.96,1.29-9.2,2.93-1.22,6.4c7.59,2.83,13-4.39,21.18-6.87,12.14-3.67,38.94-3.11,50.07,2.71,12.45,6.51-10.76,21.56-18.33,22.78-7.22,1.16-21.27.58-29.08.18-9.15-.46-25.76-8.75-31.08,2.05-4.85,9.86-4.62,18.85-.88,28.85l15.27.07c1.22,9.56,9.13,9.03,17.53,8.14l3.41-7.99c4.35,10.61,6.01,2.23,14.59,1.91,6.32-.24,10.89,4.23,14.19,3.92,4.12-.39,8.09-7.44,13.83-5.81.18,3.08-16.75,8.4-12.46,12.44,22.12-1.79,23.05-16.36,31.55-31.85,3.52-6.41,19.02-20.35,1.74-13.86-1.16-10.18-13.4-20.69-7.36-31.42.99-1.76,4.26.07,4.81-.42,14.07-12.52,12.03-13.38,32.02-20.83,3.74-1.4,9.43-.59,11.63-1.89.56-.33,6.34-10.41,6.43-11.3.55-5.14-13.87-12.72-17.03-17.58-7.64-11.76-9.03-29.57-9.73-43.4ZM455.72,846.99c-8.24-3.19-9.32,5.38-11.87,6.19-5.07,1.6-11.76.29-19.07,3.33-2.68,1.11-28.07,15.31-29.25,16.5-1.77,1.78-10.49,17.98-10.66,20.71-1.12,17.61,19.29,25.66,34.19,25.76,3.78-1.04,5.41-10.44,8.52-14.43,3.26-4.18,8.83-5.89,11.68-9.18,1.78-2.06,1.47-6.36,2.26-7.01,1.39-1.16,6.05.29,8.55-.76,2.66-1.12,4.11-3.87,5.89-4.57,11.9-4.69,26.73-7.51,39.31-5.38l2.11-14.55-9.51-2.03,1.17-6.29c-13.01,6.5-15.55-8.49-23.93-8.54-5.23-.03-3.19,7.72-9.32,6.46l-.05-6.19ZM1418.21,855.77c-8.77-7.72-42.8-2.93-54.08,0-8.48,2.2-18.91,12.29-28.04,15.63-6.9,2.52-13.03,4.56-19.86,7.18-117.27,44.92-261.77,28.68-385.08,36.94-59.14,3.96-145.77,15.67-200.43,36.84-3.78,1.46-23.36,2.8-19.12,8.9,12.79,4.63,23.53,16.41,28.17,29.04,1.77,4.84-.85,11.5,3.96,14.13,10.68,1.96,45.44-15.36,58.83-17.68,77.48-13.42,155.03-18.73,234.44-23.45,75.38-4.48,149.06-5.72,224.6-18.55,30.58-5.19,65.19-9.66,93.51-23.16,17.78-8.48,40.59-27.33,55.56-40.1,1.73-1.48,5.15-1.32,6.98-3.4,3.44-3.9,4.68-18.67.56-22.3ZM619.79,884.67c-3.21-2.1-21.14,2.87-22.23,4.21s.23,5.79-1.33,8.02c-1.39,1.99-5.33,1.26-6.77,2.58-7.13,6.56-7.56,19.45-9.02,27.36-.72,3.9-3.67,6.96-3.8,10.43-.09,2.16,4.91,20.38,6.05,22.37,4.11,7.16,21.74,14.41,27.09,4.66l-12.24-24.54c5.64-5.38,5.42-16,8.27-20.8,2.27-3.82,6.51-3.09,8.95-5.6,7.11-7.32,10.05-18.45,24.01-20.72.5-7.72-8.12-6.31-13.43-6.34l-2.14,6.36-3.41-7.99ZM1510.26,888.54c-17.71-.74-31.73,12.22-47.4,18.08-33.24,12.44-69.74,21.28-102.93,32.24-25.44,8.4-40.47,11.26-65.71,17.47-11.36,2.8-23.37,10.19-35.6,11.2,6.66,10.33,17.6,3.38,27.01,2.06,3.83,3.86-17,11.36-19.9,12.31-48.68,15.9-83.03,29.09-126.82,56.18-2.44,1.51-18.7,11.24-15.48,14.65,22.56-11.72,43.75-27.23,67.98-34.94,8.36-6.47,73.02-34.93,77.59-31.57-17.43,15.6-46.46,14.76-62.4,33.22,13.31-2.81,24.82-10.84,37.85-15.16,16.59-5.51,35.04-7.79,51.58-13.9l-13.42,8.39-24.51,6.68-24.45,13.99c11.48-1.19,22.43-5.79,33.3-9.31,10.04-3.25,14.12-5.01,25.46-7.82,14.09-3.49,17.36-10.21,32.75.56-6.76,9.94-4.68,22.74-.87,33.34,11.54-.44,25.67.63,36.77-2.71,41.54-12.48,81.53-26.56,120.33-46.04,6.74-3.39,16.89-3.18,20.57-11.64l-115.48,41.52c-6.2-.02-1.91-2.39.54-3.63,20.02-10.18,42.88-15.18,62.94-25.46.15-3.94-8.97-2.11-10.96-1.59-12.14,3.2-26.67,13.39-40.01,16.14-4.44-5.69,6.42-5.09,11.23-7.49,43.97-21.94,95.06-36.34,139.93-59.71l14.21-13.84c-14.3.28-23.36,11.15-37.42,15.59-33.77,10.65-66.47,20.82-99.8,33.3-14.35,5.37-28.3,14.16-43.72,15.53-4.49-3.33,35.41-16.31,37.8-17.29,38.64-15.83,76.39-34.94,115.52-48.77l25.54-12.9c-13.59-1.4-26.79,8.91-38.34,12.58-12.97,4.12-27.71,6.32-41.13,10.86-28.82,9.76-70.28,32.54-97.21,37.98-2.12.43-6.84,2.69-6.33-1.14l130.38-55.75,3.74-4.58c-32.61,7.83-63.56,21.14-94.64,32.21-25.67,9.15-56.59,23.05-82.62,29.68-2,.51-9.25,2.3-8.86-1.57,37.58-12.81,73.41-29.32,110.22-44.72,3.14-1.32,7.26-.76,10.41-2.07,21.29-8.85,45.05-17.1,62.39-32.2ZM1597.62,888.54c-10.29-.11-20.77,7.82-29.39,13.29-2.71,1.72-4.99.2-3.88,5.39,3.4,2.72,31.97-11.68,33.27-18.68ZM677.58,895.48c-1.31-1.33-8.21-6.19-9.67-4.86,3.43,10.5,18.49,25.32,4.17,32.22l4.06,6.09-12.36,28.19c15.07-13.83,31.36-43.77,13.81-61.64ZM563.8,921.91c-17.74-4.63-33.59,16.17-37.31,31.05,10.13,2.74,10.63-12.46,15.92-14.21l21.23-.59.16-16.24ZM408.15,1003.09c9.71-1.78,1.51-14.14,4.36-23.72,2.64-8.86,21.93-13.15,6.71-30.43-6.2-7.04-35.39-18.14-44.22-15.45-4.72,1.44-4.72,4.57-6.03,4.86-2.63.59-7.19-.81-8.62.35-.58.47-.62,4.84-2.26,6.99-3.32,4.34-8.53,6.15-11.37,9.5-9.1,10.75-6.43,27.02,2,37.18,8.31,10.03,37.16,18.35,50.37,20.33,3.64.55,7.24.8,10.9.52l-1.85-10.15ZM549.67,952.53l10.04-6.85c-6.83-6.57-22.13-4.36-20.74,7.28l9.31-4.28,1.38,3.85ZM490.89,953.18c-16.48-6.5-26.58-4.42-42.44,1.86-2.44.97-3.92-1.58-3.08,4.14,14.42,4.88,30.51,9.27,45.45,3.89l.07-9.88ZM570.13,950.89c-1.86-1.32-14.93,7.06-12.44,10.37l14.52,2.1-2.08-12.47ZM1223.22,963.36c-44.28,6.83-89.29,12.26-134.14,15.46-7.18.51-16.62-1.39-24.94-.89-22.42,1.34-45.06,3.49-67.28,6.54-.14,10.68-9.82,15.92-11.93,24.47-3.51,14.24-4.23,34.65-7.61,48.52-4.15,17.04-13.46,32.92-16.04,50.49-1.93,13.14-.89,30.93-2.17,44.58.21.28,4.65-2,5.54-2.78,11.98-10.65,25.01-28.47,36.77-40.15,64.04-63.6,127.38-100.88,208.87-139.44,4.36-2.06,14.31-.24,12.94-6.81ZM586.78,982.06c2.39-2.5-7.72-11.69-11.47-12.41-23.87-4.58-32.48,11.2-46.74,25.96l10.37,2.04c-2.86,5.56-10.32,4.26-13.54,7.25-6.35,5.92-1.6,22.18,2.04,29.19,8.51,4.69,22.1-1.3,25.39-10.05,4.93-13.11,6.99-25.02,15.94-37.15,2.02-2.74,8.66-6.89,10.75-11.05l7.26,6.22ZM609.66,1021.56c-4.67-7.03,2.08-13.34,1.61-17.23-.08-.63-4.34-10.88-4.85-11.74-2.96-4.93-11.94-7.53-17.53-8.44-2.8,2.55,11.77,13.96,13.34,16.79,4.11,7.43.92,16.23,7.43,20.62ZM909.17,986.24c-1.57-1.42-37.08,1.6-42.38,2.31-82.81,11.1-169.16,45.21-241.87,84.63-14.45,7.83-21.86,15.51-34.15,24.07-13.04,9.09-22.55,9.95-37.03,13.92-.23,42.11-16.53,82.56-21.01,124.51,29.49-.82,58.84,1.18,88.13,4.42,14.41,1.6,30.41,6.81,43.95,8.04,7.38.67,60.99.98,63.56-.88,3.59-7.58,4.27-22.58,8.05-29.37,1.15-2.06,17.51-15.75,20.18-17.25,9.4-5.29,30.13-8.52,37.21-14.78,7.38-6.53,5.34-15.91,9.15-22.04,4.31-6.94,26.67-17.2,34.64-19.43,9.07-2.54,20.52-4.04,29.99-4.33.31-5.83-.54-11.83,0-17.66,3.9-41.17,13.04-80.96,31.36-117.91.89-1.79,13.28-15.49,10.21-18.26ZM603.44,1063.13c9.32.21,8.86-10.19,11.64-14.33,8.08-12.02,28.55-30.97,18.5-45.91-2.28,5.02-10.71,6.45-12.93,8.88-1.21,1.33-16.82,29.47-16.67,31.26.59,7.42,4.02,10.3-.55,20.1ZM509.4,1025.3c1.61-2.8-.05-8.57.42-12.05-14.24,11.6-36.32,2.53-50.51,6.67-11.34,3.3-23.44,33.85-1.48,30.77v-8.33c8.02-.44,48.68-12.05,51.56-17.05ZM450.24,1070.05c1.84-2.51,8.35-4.58,6.7-11.15-9.04-7.65-29.28-2.92-28.19-19.51.65-9.82,19.11-26.51-15.16-19.43-6.69,1.38-30.63,18.57-34.85,23.93-6.84,8.69-13.01,26.49-3.44,35.22,10.68,9.74,60.86,9.55,71-1.56,1.88-2.06,2.25-5.18,3.94-7.5ZM651.26,1034.06l-14.54-2.09c5.03,13.13-9.57,9.63-12.49,20.75,9.52,2.39,9.43-4.49,13.19-7.58,4.29-3.52,10.53-6.76,13.83-11.09ZM555.31,1036.44c-40.98-.07-2.75,20.64,12.36,26.07,5.45,1.96,11.22,3.01,17.04,2.7.75-18.23-27.22-9.64-29.4-28.77ZM539.77,1062.35c-7.76-8.35-14.05-15.24-26.33-9.1-13.63,6.82-14.12,34.94-7.76,29.67,2.78-9.9,5.45-14.66,16.62-15.61,2.93,7.67-11.3,33.47,2.18,30.28,2.59-.61,16.78-9.57,17.74-11.53,1.2-2.45-3.3-6.08-3.26-9.46.06-4.67,7.18-6.77,6.24-10.32-.36-1.35-4.08-2.48-5.44-3.94ZM497.36,1052.77c-16.21-.52-20.91,13.66-31.22,21.86l4.16,9.31-8.27-6.24c-19.75,30.8,26.31,37.48,45.71,23.84-.21-6.73-6.83-8.31-9.9-12.9-7.79-11.66-8.33-24.19-.49-35.87ZM1156.67,1052.76c-14.56,2.31-31.89,14.66-44.41,23.15-38.26,25.95-76.34,60.21-109.61,92.05-45.88,43.9-87.95,92.19-141.39,124.82l-31.12,17.73c3.7-9.88,34-22.69,35.38-30.16.25-1.33-7.89.87-.88-7.05s23.37-16.98,31.83-24.32c58.72-50.95,110.63-110.19,170.28-158.74,6.84-5.57,17.56-10.13,23.36-17.76l-3.07-1.01c-13.31,11.23-28.78,19.67-42.55,30.24-62.59,48.06-114.63,106.49-175.92,156.79-41.36,33.95-94.64,63.52-140.42,90.4-48.13,28.25-92.89,36.47-143.03,56.72-3.13,1.26-5.63-1.23-4.56,4.67l124.78-41.55c-9.89,9.83-24.63,14.83-36.66,22.59l-38.22,14.83,2.77,3.82c13.73-3.2,25.84-10.23,38.77-15.34,3.74-1.48,8.26-.44,12.42-2.14,5.3-2.16,27.55-15.86,30.24-15.48l2.16,4.18-26.02,17.67,9.31-1.09,1.06,4.16-33.27,12.53c-2.07,6.72,9.3,4.39,13.03,3.64,42.97-8.62,118.3-51.92,153.86-77.07,31.53-22.3,68.37-49.18,95.28-77.27,1.67-1.74,13.84-14.2,12.37-15.62-3.94.25-8.8,4.42-11.75,6.95-25.79,22.13-57.75,46.96-85.46,65.86-5.02,3.42-40.64,24.87-43.14,24.93-4.36-4.09,6.45-6.84,10.9-9.79,68.49-45.4,129.34-95.58,187.61-151.45,8.26-7.92,26.88-22.03,32.56-30.05,1.7-2.4,2.52-3.36.78-6.23,12.23,2.7,6.4-5.54,12.59-11.37,5.86-5.52,20.06-13.59,26.73-19.09,21.56-17.76,41.96-37.97,66.67-49.79l16.74-15.38ZM362.18,1100.55c1.08,1.05,15.42-4.84,14.54-9.31l-12.37-3.04-2.17,12.35ZM443.22,1090.22c-8.46-2.08-17.19,4.41-24.22,5.4-20.57,2.9-40.54-2.86-56.88,16.34-9.13,10.73-1.17,44.05-11.07,52.34-13.76,11.54-49.34,14.47-67,21.38-3.59,1.4-5.57,4.17-8.69,5.87-3.16,1.72-8.79,1.69-10.98,3.58-.77.66-6.42,14.6-8.67,18.36-2.1,3.5-5.72,5.66-7.64,8.99-7.51,13.01-7.36,42.64-3.88,57.32,6.09,25.74,52.8,86.26,77.04,95.55,128.1,49.09,236.64,32.73,361.77-13.36,10.52-3.88,19.45-15.24,30.65-16.15-1.27-2.57-8.57-5.2-11.38-6.26-12.71-4.8-21.31-4.39-23.77-21.96-1.99-14.21,3.01-16.34,8.11-27.87-3.65-.22-7.68.56-11.27-.17-46.72-9.54-96.2-9.25-143.64-14.42-18.95-2.07-47.77-2.77-62.83-12.04-5.52-3.39-12.44-7.18-13.24-13.79-2.86-23.34,7.54-41.33,12.48-62.62,5.15-22.17,7.82-44.44,14.56-66.16-1.25-4.17-15.47-3.95-21.08-6.07-9.11-3.44-19-14.09-18.37-24.26ZM503.15,1253.97c2.03-1.49,12.1-43.22,12.71-48.64,2.07-18.36-.28-53.58-8.61-69.95-1.06-2.07-11.94-18.35-14.04-16.09-2.39,27.64-11.46,53.82-18.24,80.52-1.11,4.38.15,9.19-.96,13.59-3.09,12.17-8.26,22.84-12.02,34.76,8.46-2.06,13.14,7.04,19.89,8.25,3.61.65,18.96-.73,21.27-2.43ZM959.09,1202.45c-3.89-.9-4.96,2.15-7.29,4.13-15.43,13.08-31.09,26.71-44.71,41.57,7.6-.83,16.84-10.17,22.91-15.54,10.34-9.15,19.81-19.95,29.09-30.15ZM278.27,1346.58c-2.77-3.17-8.07-5.4-11.73-10.12-15.14-19.55-28.89-42.81-33.35-67.5-3.04-.37-3.72,5.43-3.94,7.44-5.56,50.08,56.05,118.92,97.79,140.96,23.88,12.61,30.05,8.93,54.35,12.2,12.69,1.71,24.78,9.46,36.92,12.99,33.63,9.79,93.11,14.43,128.01,11.49,8.13-.68,18.93-2.96,25.91-7.36-12.44-1.92-25.42,5.5-37.41,1.02l4.13-4.11c-5.53,1.33-8.48-4.79-11.85-5.83-7.16-2.21-17.71,1.54-25.56-2.53l43.67-7.21,2.07-3.14-35.36,2.04c-.58-.42,1.09-2.69,2.04-3.13,7.35-3.45,28.11-3.38,37.94-5.73,2.54-.61,11.04-3.02,12-5.65l-35.34,4.11c-1.48-2.68,16.97-3.66,7.25-6.26-69.59,14.1-197.36.76-249.42-49.99-4.06-3.96-5.82-11.06-8.13-13.7Z"/>
    <path d="M376.63,1225.41c.12,23.04-68.89,30.88-45.33,1.25,13.46-16.93,29.48-7.98,45.33-1.25ZM364.24,1231.51c-7.56-14.6-17.12-6.09-26.99,1.06,7.64,7.54,18.56.71,26.99-1.06Z"/>
    <path d="M343.55,1198.17c-5.08-23.93,20.83-36.4,40.1-24.5,7.65,4.72,21.69,17.15,9.55,23.41-16.4,8.45-32.7,4.6-49.65,1.09ZM382.23,1182.37c-16.53-13.74-52.95,3.57-26.71,13.13,11.46,4.17,22.46,4.51,31.55-4.66.29-1.44-3.46-7.33-4.84-8.47Z"/>
    <path d="M320.44,1198.4c2.44,7.59-5.82,14.21-12.3,15.57-5.33,1.12-9.37-2.32-14.09-2.75-5.39-.49-10.97,4.63-15.03-1.5,7.21-18.61,25.21-17.64,41.42-11.32ZM308.1,1198.29h-12.49c1.61,8.34,5.67,12.31,14.62,9.42l2.03-5.27-6.28-.02,2.13-4.13Z"/>
    <path d="M385.06,1150.45c-1.3-5.35,1.7-3.63,3.89-5.4,8.47-6.86,18.59-17.34,29.37-8.07,1.61,7.57-28.03,9.56-33.25,13.47Z"/>
    <path d="M734.19,1127.87c1.53,2.47-.42,8.4-2.03,10.94-1.81,2.85-15.53,12.52-18.48,10.62,36.63-25.04-.45-22.96-22.91-19.73l.98,6.27-30.06,16.55c10.52,3.63,20.84,3.14,31.74,1.61,4.37-.61,14.97-7.54,18.15-1.61-17.82,5.54-35.69,12.32-54.6,5.77-5.6-1.94-5.86-7.35-9.31-9.96-5.68-4.29-14.6-1.25-10.51-12.99,5.64-16.18,44.61-17.68,58.73-15.95,3.08.38,5.43,3.53,8.53,3.95,10.16,1.37,20.08-2.03,29.78,4.54ZM692.86,1123.45c-16.5-1.29-34.82,1.53-49.3,9.92-2.21,1.28-3.64-.28-2.68,4.58,13.07,7.91,15.22-.88,27.02-4.11l-6.22,8.28c2.9.38,5.61-.29,8.42-.9,1.44-.31,9.91-2.88,10.28-3.27,4.23-4.35-5.23-3.31-4.14-6.18l16.61-8.32Z"/>
    <path d="M773.51,849.5c15.19-1.79,12.45,10.2,8.84,21.39l-38.94,17.21c-10.24,1.25-37.6,3.5-27.77-13.2,7.33-12.46,43.93-23.75,57.87-25.39ZM780.21,853.19c-20.19.5-35.88,9.56-52.87,18.86-2.78,1.52-6.33.92-5.35,6.07l7.93-1.55,1.5,3.8c16.24-8.26,45.1-5.39,48.78-27.17Z"/>
    <path d="M801.02,824.07c-.31.11-2.63,4.47-3.97,5.2,6.6,9.07,16.99,6.25,22.67-2.11,2.02-4.97-17.4-3.56-18.7-3.09.18-.13-.86-3.57,1.37-4.18,5.07-1.37,29.8,1.36,29.78,7.3-6.62,10.3-33.59,20.27-41.75,10.57-8.23-9.78,8.35-12.12,10.59-13.69Z"/>
    <path d="M767.14,815.97c3.46,0,16.14,5.18,15.16,9.11-6.17,4.78-19.86,10.28-27.06,6.3-3.59-2.68-.69-3,1.07-5.23,1.66-2.1,8.99-9.72,10.83-10.18Z"/>
    <path d="M817.68,865.65c.65-13.4,19.32-17.34,26.98-7.27-6.41,9.56-17.96,2.19-26.98,7.27Z"/>
    <path d="M1377.15,986.25c-.58,3.51-4.06,3.72-6.69,4.73-8.6,3.31-19.77,7.58-28.66,7.7l25.34-11.02,10.01-1.41Z"/>
  </g>
</svg>